<svg width="2143" height="1676" viewBox="0 0 2143 1676" fill="none" xmlns="http://www.w3.org/2000/svg">
<path fill-rule="evenodd" clip-rule="evenodd" d="M1208.5 1494.5C1220.33 1390.83 1316.6 1174.2 1607 1137C1897.4 1099.8 2085.33 1009.83 2143 969.5C2051.67 1063.83 1855.01 1226.09 1662 1273C1357.36 1347.04 1302.6 1402.41 1249.26 1456.35C1236.68 1469.07 1224.18 1481.71 1208.5 1494.5ZM1085 1675.5C1160.5 1569.67 1370.9 1348.2 1608.5 1309C1846.1 1269.8 2044.5 1119.33 2114 1049C2058.67 1229.33 1847.4 1582.9 1445 1554.5C1379.83 1553.67 1239.4 1559.8 1199 1591C1158.6 1622.2 1133.5 1660.33 1126 1675.5H1085Z" fill="#017C43"/>
<path fill-rule="evenodd" clip-rule="evenodd" d="M934.5 1495C922.667 1391.33 826.4 1174.7 536 1137.5C245.6 1100.3 57.6667 1010.33 0 970C91.3333 1064.33 316.643 1247.44 481 1273.5C722.773 1311.84 825.128 1400.65 901.817 1467.19C913.15 1477.03 923.921 1486.37 934.5 1495ZM1058 1676C982.5 1570.17 772.1 1348.7 534.5 1309.5C296.9 1270.3 98.5 1119.83 29 1049.5C84.3333 1229.83 295.6 1583.4 698 1555C763.167 1554.17 903.6 1560.3 944 1591.5C984.4 1622.7 1009.5 1660.83 1017 1676H1058Z" fill="#017C43"/>
<path fill-rule="evenodd" clip-rule="evenodd" d="M736.694 650.038C856.947 457.128 1035.45 122.821 1063.34 22.5063C1064.55 18.1815 1074.61 16.9367 1076.46 21.0251C1168.96 225.099 1348.18 579.53 1389.24 634.603C1447.83 706.028 1483 797.407 1483 897C1483 1125.65 1297.65 1311 1069 1311C840.354 1311 655 1125.65 655 897C655 804.445 685.372 718.983 736.694 650.038Z" fill="url(#paint0_linear_1503_7252)"/>
<circle cx="1085" cy="885" r="285" fill="url(#paint1_radial_1503_7252)"/>
<defs>
<linearGradient id="paint0_linear_1503_7252" x1="1069" y1="0" x2="1069" y2="1311" gradientUnits="userSpaceOnUse">
<stop stop-color="#0F9BD2"/>
<stop offset="0.128125" stop-color="#0AA8D3"/>
<stop offset="0.289583" stop-color="#48B9DF"/>
<stop offset="0.440625" stop-color="#64B5D3"/>
<stop offset="0.628125" stop-color="#49BEE2"/>
<stop offset="0.815625" stop-color="#19A1D3"/>
<stop offset="1" stop-color="#14A2D6"/>
</linearGradient>
<radialGradient id="paint1_radial_1503_7252" cx="0" cy="0" r="1" gradientUnits="userSpaceOnUse" gradientTransform="translate(1085 885) rotate(90) scale(285)">
<stop stop-color="#C8E4F3"/>
<stop offset="1" stop-color="#C8E4F3" stop-opacity="0"/>
</radialGradient>
</defs>
</svg>
